<!--?xml version="1.0" encoding="us-ascii" standalone="no"?--><svg xmlns="http://www.w3.org/2000/svg" xmlns:xlink="http://www.w3.org/1999/xlink" contentstyletype="text/css" height="241px" preserveAspectRatio="none" style="width:365px;height:241px;background:#FFFFFF;" version="1.1" viewBox="0 0 365 241" width="365px" zoomAndPan="magnify"><defs></defs><g><!--entity root--><g id="elem_root"><rect fill="#F1F1F1" height="36.2969" rx="2.5" ry="2.5" style="stroke:#181818;stroke-width:0.5;" width="92" x="136.5" y="7"></rect><text fill="#000000" font-family="sans-serif" font-size="14" lengthAdjust="spacing" textLength="72" x="146.5" y="29.9951">Root Hash</text></g><!--entity hash1--><g id="elem_hash1"><rect fill="#F1F1F1" height="36.2969" rx="2.5" ry="2.5" style="stroke:#181818;stroke-width:0.5;" width="68" x="97.5" y="103.3"></rect><text fill="#000000" font-family="sans-serif" font-size="14" lengthAdjust="spacing" textLength="48" x="107.5" y="126.2951">Hash 1</text></g><!--entity hash2--><g id="elem_hash2"><rect fill="#F1F1F1" height="36.2969" rx="2.5" ry="2.5" style="stroke:#181818;stroke-width:0.5;" width="68" x="200.5" y="103.3"></rect><text fill="#000000" font-family="sans-serif" font-size="14" lengthAdjust="spacing" textLength="48" x="210.5" y="126.2951">Hash 2</text></g><!--entity leaf1--><g id="elem_leaf1"><rect fill="#F1F1F1" height="36.2969" rx="2.5" ry="2.5" style="stroke:#181818;stroke-width:0.5;" width="61" x="7" y="199.59"></rect><text fill="#000000" font-family="sans-serif" font-size="14" lengthAdjust="spacing" textLength="41" x="17" y="222.5851">Leaf 1</text></g><!--entity leaf2--><g id="elem_leaf2"><rect fill="#F1F1F1" height="36.2969" rx="2.5" ry="2.5" style="stroke:#181818;stroke-width:0.5;" width="61" x="103" y="199.59"></rect><text fill="#000000" font-family="sans-serif" font-size="14" lengthAdjust="spacing" textLength="41" x="113" y="222.5851">Leaf 2</text></g><!--entity leaf3--><g id="elem_leaf3"><rect fill="#F1F1F1" height="36.2969" rx="2.5" ry="2.5" style="stroke:#181818;stroke-width:0.5;" width="61" x="202" y="199.59"></rect><text fill="#000000" font-family="sans-serif" font-size="14" lengthAdjust="spacing" textLength="41" x="212" y="222.5851">Leaf 3</text></g><!--entity leaf4--><g id="elem_leaf4"><rect fill="#F1F1F1" height="36.2969" rx="2.5" ry="2.5" style="stroke:#181818;stroke-width:0.5;" width="61" x="298" y="199.59"></rect><text fill="#000000" font-family="sans-serif" font-size="14" lengthAdjust="spacing" textLength="41" x="308" y="222.5851">Leaf 4</text></g><!--link root to hash1--><g id="link_root_hash1"><path d="M173.15,43.44 C164.86,58.77 152.71,81.23 143.67,97.95 " fill="none" id="root-to-hash1" style="stroke:#181818;stroke-width:1.0;"></path><polygon fill="#181818" points="140.97,101.94,148.7611,95.9152,143.3422,97.5386,141.7188,92.1196,140.97,101.94" style="stroke:#181818;stroke-width:1.0;"></polygon></g><!--link root to hash2--><g id="link_root_hash2"><path d="M192.04,43.44 C200.49,58.77 212.88,81.23 222.1,97.95 " fill="none" id="root-to-hash2" style="stroke:#181818;stroke-width:1.0;"></path><polygon fill="#181818" points="224.85,101.94,224.0004,92.1279,222.4327,97.5632,216.9974,95.9955,224.85,101.94" style="stroke:#181818;stroke-width:1.0;"></polygon></g><!--link hash1 to leaf1--><g id="link_hash1_leaf1"><path d="M114.26,139.74 C98.72,155.33 75.81,178.31 59.07,195.11 " fill="none" id="hash1-to-leaf1" style="stroke:#181818;stroke-width:1.0;"></path><polygon fill="#181818" points="55.95,198.24,65.1352,194.6859,59.4784,194.6973,59.467,189.0405,55.95,198.24" style="stroke:#181818;stroke-width:1.0;"></polygon></g><!--link hash1 to leaf2--><g id="link_hash1_leaf2"><path d="M131.87,139.74 C132.19,154.8 132.65,176.76 133,193.38 " fill="none" id="hash1-to-leaf2" style="stroke:#181818;stroke-width:1.0;"></path><polygon fill="#181818" points="133.13,198.24,136.9492,189.1618,133.03,193.241,128.9508,189.3218,133.13,198.24" style="stroke:#181818;stroke-width:1.0;"></polygon></g><!--link hash2 to leaf3--><g id="link_hash2_leaf3"><path d="M234.13,139.74 C233.81,154.8 233.35,176.76 233,193.38 " fill="none" id="hash2-to-leaf3" style="stroke:#181818;stroke-width:1.0;"></path><polygon fill="#181818" points="232.87,198.24,237.0492,189.3218,232.97,193.241,229.0508,189.1618,232.87,198.24" style="stroke:#181818;stroke-width:1.0;"></polygon></g><!--link hash2 to leaf4--><g id="link_hash2_leaf4"><path d="M251.74,139.74 C267.28,155.33 290.19,178.31 306.93,195.11 " fill="none" id="hash2-to-leaf4" style="stroke:#181818;stroke-width:1.0;"></path><polygon fill="#181818" points="310.05,198.24,306.533,189.0405,306.5216,194.6973,300.8648,194.6859,310.05,198.24" style="stroke:#181818;stroke-width:1.0;"></polygon></g><!--SRC=[PSun3e0W343HdLCqxWmKPcS79s_G6DI1I0BSFo9gHTdw-zAamSw9zjLPw2Rl4mmKjmueGiWbmgidW2gqvL4rXcnOssXfkUzS7bLZoDRUQJRTc64pGfpVWfJzyrkTACgozFN2joz7RlrhSm00]--></g></svg>